<?xml version="1.0" standalone="no"?>
<!DOCTYPE svg PUBLIC "-//W3C//DTD SVG 20010904//EN"
 "http://www.w3.org/TR/2001/REC-SVG-20010904/DTD/svg10.dtd">
<svg version="1.0" xmlns="http://www.w3.org/2000/svg"
 width="800.000000pt" height="800.000000pt" viewBox="0 0 800.000000 800.000000"
 preserveAspectRatio="xMidYMid meet">
<metadata>
Created by potrace 1.11, written by Peter Selinger 2001-2013
</metadata>
<g transform="translate(0.000000,800.000000) scale(0.100000,-0.100000)"
fill="#000000" stroke="none">
<path d="M0 4000 l0 -4000 4000 0 4000 0 0 4000 0 4000 -4000 0 -4000 0 0
-4000z m5464 2669 c290 -68 438 -119 639 -221 446 -226 799 -580 1026 -1028
94 -184 135 -307 128 -378 -8 -72 -49 -153 -99 -196 -69 -60 -104 -66 -355
-66 -123 0 -223 -1 -223 -3 0 -2 14 -43 31 -93 117 -344 175 -746 151 -1052
-34 -430 -170 -821 -412 -1184 -107 -162 -325 -423 -446 -537 -370 -346 -979
-560 -1763 -621 -305 -23 -689 3 -1021 70 -470 94 -843 323 -1257 770 -157
169 -274 343 -393 585 -195 393 -279 763 -266 1170 3 105 8 200 12 211 6 22 4
22 -128 20 -119 -1 -138 1 -183 22 -63 29 -129 92 -163 157 -27 50 -27 51 -27
265 0 225 8 291 51 460 72 279 190 484 402 696 127 127 191 180 458 370 234
167 288 198 379 215 122 22 226 -12 371 -122 57 -44 108 -79 114 -79 6 0 54
22 108 49 380 191 801 315 1187 352 170 16 470 6 637 -20 139 -22 323 -67 434
-105 l72 -24 17 46 c51 134 112 214 197 258 101 51 151 53 322 13z"/>
<path d="M5243 6464 c-42 -21 -48 -31 -127 -226 l-68 -167 -52 21 c-115 47
-338 118 -447 142 -198 44 -367 59 -599 53 -447 -11 -839 -121 -1326 -371
l-160 -82 -140 109 c-76 60 -157 118 -179 128 -51 24 -99 24 -150 0 -49 -23
-366 -246 -495 -349 -405 -323 -570 -660 -570 -1167 0 -160 6 -185 54 -210 30
-16 47 -17 257 -3 123 8 226 13 228 11 3 -2 -6 -65 -18 -141 -29 -170 -38
-433 -22 -593 49 -470 232 -901 563 -1325 94 -121 198 -224 226 -224 19 0 21
8 24 123 3 120 4 125 42 202 29 59 59 99 120 160 216 218 538 356 991 427 190
30 661 32 855 5 473 -68 859 -220 1060 -418 99 -97 172 -223 196 -339 18 -90
8 -139 -49 -237 -77 -130 -96 -193 -59 -193 71 0 465 363 643 592 430 554 589
1168 469 1813 -40 215 -121 475 -205 661 -19 42 -35 89 -35 105 l0 29 370 0
370 0 16 25 c22 33 15 65 -44 200 -225 513 -682 942 -1205 1130 -101 36 -444
125 -481 125 -12 0 -35 -8 -53 -16z m120 -1276 c276 -164 476 -432 563 -753
24 -88 27 -119 28 -255 0 -139 -2 -165 -27 -255 -173 -629 -908 -1043 -1572
-885 -317 75 -613 267 -784 510 -118 167 -182 340 -204 546 l-5 41 942 551
c517 302 948 550 957 551 8 1 54 -22 102 -51z m-2848 -986 l639 -108 43 -81
c61 -115 85 -213 85 -348 0 -89 -5 -127 -26 -198 -75 -254 -249 -451 -500
-567 -209 -97 -436 -104 -668 -20 -135 49 -231 111 -338 219 -79 78 -105 113
-143 188 -129 251 -123 542 15 778 49 82 204 245 233 244 11 0 308 -48 660
-107z"/>
<path d="M5080 4387 c-99 -66 -99 -208 1 -275 28 -20 44 -23 94 -20 69 4 103
24 134 79 43 75 15 176 -59 218 -52 29 -126 28 -170 -2z"/>
<path d="M2632 3903 c-48 -23 -75 -67 -80 -129 -11 -129 116 -214 235 -158
107 51 114 221 11 284 -41 25 -120 26 -166 3z"/>
<path d="M3605 2849 c-240 -24 -518 -93 -724 -177 -192 -80 -330 -171 -412
-274 -138 -174 -125 -343 40 -508 113 -112 274 -199 512 -275 148 -46 371 -91
529 -106 159 -15 594 -6 750 16 629 85 989 294 1042 607 15 83 0 140 -57 217
-166 225 -514 386 -1030 477 -121 21 -190 26 -355 29 -113 2 -245 0 -295 -6z
m-465 -365 c71 -81 110 -221 110 -395 0 -268 -67 -433 -176 -433 -56 0 -103
61 -146 189 -20 62 -23 89 -23 235 0 145 3 174 24 240 44 142 86 200 145 200
27 0 41 -8 66 -36z m1374 4 c66 -67 102 -231 93 -422 -11 -245 -77 -416 -160
-416 -104 0 -177 189 -177 461 0 217 84 409 178 409 25 0 43 -9 66 -32z"/>
</g>
</svg>
